<svg width="20" height="21" viewBox="0 0 20 21" fill="none" xmlns="http://www.w3.org/2000/svg">
<g id="Frame">
<path id="Vector" d="M9.64509 13.1309L9.99738 13.4837L14.8552 8.62735C14.948 8.53368 15 8.40716 15 8.27531C15 8.14347 14.948 8.01695 14.8552 7.92328C14.809 7.87681 14.7542 7.83992 14.6937 7.81474C14.6333 7.78955 14.5685 7.77656 14.503 7.77651C14.4375 7.77647 14.3727 7.78937 14.3122 7.81447C14.2517 7.83957 14.1968 7.87638 14.1506 7.92278L9.99838 12.0735L5.84965 7.92278C5.80352 7.87636 5.74867 7.83952 5.68826 7.81438C5.62784 7.78925 5.56305 7.77631 5.49761 7.77631C5.43217 7.77631 5.36738 7.78925 5.30696 7.81438C5.24655 7.83952 5.1917 7.87636 5.14557 7.92278C5.05251 8.01635 5.00019 8.14289 5 8.27486C4.99981 8.40683 5.05178 8.53352 5.14457 8.62735L9.62566 13.1104L9.64559 13.1309H9.64509Z" fill="white"/>
</g>
</svg>
