<svg width="31" height="30" viewBox="0 0 31 30" fill="none" xmlns="http://www.w3.org/2000/svg">
<g id="clear">
<g id="Group 19">
<path id="Subtract (Stroke)" fill-rule="evenodd" clip-rule="evenodd" d="M17.0371 3.63708C17.2257 3.63708 17.4066 3.712 17.5399 3.84536L26.5616 12.8671C26.695 13.0004 26.7699 13.1813 26.7699 13.3699C26.7699 13.5585 26.695 13.7394 26.5616 13.8727L17.6461 22.7883C17.5127 22.9216 17.3318 22.9966 17.1432 22.9966L9.66995 22.9966C9.48135 22.9966 9.30048 22.9216 9.16712 22.7883L3.88207 17.5032C3.60436 17.2255 3.60436 16.7753 3.88207 16.4976L16.5343 3.84536C16.6676 3.712 16.8485 3.63708 17.0371 3.63708ZM17.0371 5.35386L5.39056 17.0004L9.9645 21.5743L16.8487 21.5743L25.0531 13.3699L17.0371 5.35386Z" fill="white"/>
<path id="Vector 28 (Stroke)" fill-rule="evenodd" clip-rule="evenodd" d="M21.7985 17.9078L12.4992 8.60845L13.5049 7.60278L22.8042 16.9021L21.7985 17.9078Z" fill="white"/>
</g>
<path id="Vector 29 (Stroke)" fill-rule="evenodd" clip-rule="evenodd" d="M2.26758 25.0671C2.26758 24.6743 2.58595 24.356 2.97869 24.356H27.4652C27.858 24.356 28.1763 24.6743 28.1763 25.0671C28.1763 25.4598 27.858 25.7782 27.4652 25.7782H2.97869C2.58595 25.7782 2.26758 25.4598 2.26758 25.0671Z" fill="white"/>
</g>
</svg>
