<svg width="24" height="25" viewBox="0 0 24 25" fill="none" xmlns="http://www.w3.org/2000/svg">
<g id="date icon">
<g id="Group 5">
<path id="&#232;&#183;&#175;&#229;&#190;&#132; (Stroke)" fill-rule="evenodd" clip-rule="evenodd" d="M2.88867 10.2011H21.1109V20.2011C21.1109 21.0603 20.4145 21.7567 19.5553 21.7567H4.44423C3.58512 21.7567 2.88867 21.0603 2.88867 20.2011V10.2011ZM4.22201 11.5345V20.2011C4.22201 20.3239 4.32149 20.4234 4.44423 20.4234H19.5553C19.6781 20.4234 19.7776 20.3239 19.7776 20.2011V11.5345H4.22201Z" fill="white"/>
<path id="&#232;&#183;&#175;&#229;&#190;&#132; (Stroke)_2" fill-rule="evenodd" clip-rule="evenodd" d="M4.44423 6.20113C4.3215 6.20113 4.22201 6.30062 4.22201 6.42335V10.2011H19.7776V6.42335C19.7776 6.30062 19.6781 6.20113 19.5553 6.20113H4.44423ZM2.88867 6.42335C2.88867 5.56424 3.58512 4.8678 4.44423 4.8678H19.5553C20.4145 4.8678 21.1109 5.56425 21.1109 6.42335V11.5345H2.88867V6.42335Z" fill="white"/>
<path id="&#232;&#183;&#175;&#229;&#190;&#132; (Stroke)_3" fill-rule="evenodd" clip-rule="evenodd" d="M7.77734 7.7567V4.20114H9.11068V7.7567H7.77734Z" fill="white"/>
<path id="&#232;&#183;&#175;&#229;&#190;&#132; (Stroke)_4" fill-rule="evenodd" clip-rule="evenodd" d="M14.8887 7.7567V4.20114H16.222V7.7567H14.8887Z" fill="white"/>
<path id="&#232;&#183;&#175;&#229;&#190;&#132; (Stroke)_5" fill-rule="evenodd" clip-rule="evenodd" d="M16.444 18.2007H13.7773V16.8674H16.444V18.2007Z" fill="white"/>
<path id="&#232;&#183;&#175;&#229;&#190;&#132; (Stroke)_6" fill-rule="evenodd" clip-rule="evenodd" d="M10.2218 18.2007H7.55518V16.8674H10.2218V18.2007Z" fill="white"/>
<path id="&#232;&#183;&#175;&#229;&#190;&#132; (Stroke)_7" fill-rule="evenodd" clip-rule="evenodd" d="M16.444 14.6454H13.7773V13.312H16.444V14.6454Z" fill="white"/>
<path id="&#232;&#183;&#175;&#229;&#190;&#132; (Stroke)_8" fill-rule="evenodd" clip-rule="evenodd" d="M10.2218 14.6454H7.55518V13.312H10.2218V14.6454Z" fill="white"/>
</g>
</g>
</svg>
