<svg width="12" height="12" viewBox="0 0 12 12" fill="none" xmlns="http://www.w3.org/2000/svg">
<g clip-path="url(#clip0_284_8838)">
<path d="M6.0001 0.600098C8.98245 0.600098 11.4001 3.01775 11.4001 6.0001C11.4001 8.98245 8.98245 11.4001 6.0001 11.4001C3.01775 11.4001 0.600098 8.98245 0.600098 6.0001C0.600098 3.01775 3.01775 0.600098 6.0001 0.600098ZM6.0001 1.2801C3.4596 1.2801 1.2801 3.4596 1.2801 6.0001C1.2801 8.5406 3.4596 10.7201 6.0001 10.7201C8.5406 10.7201 10.7201 8.5406 10.7201 6.0001C10.7201 3.4596 8.5406 1.2801 6.0001 1.2801Z" fill="white"/>
<path fill-rule="evenodd" clip-rule="evenodd" d="M6.80146 6.18662C6.80357 6.18436 6.8058 6.1822 6.80813 6.18017C7.20601 5.83308 7.43504 5.61968 7.50576 5.53363C7.7018 5.28229 7.80667 4.95716 7.80667 4.56049C7.80667 4.0762 7.64631 3.69742 7.33115 3.42166L7.33021 3.42083C7.013 3.13535 6.59759 2.99674 6.07417 2.99674C5.46751 2.99674 5.0038 3.16832 4.67043 3.50963L4.66969 3.51038C4.41955 3.76052 4.26145 4.07821 4.19725 4.47128C4.16846 4.64753 4.3172 4.80799 4.51745 4.80799C4.70773 4.80799 4.86917 4.64928 4.91645 4.43839C4.95593 4.26229 5.02146 4.11022 5.11516 3.98479C5.30603 3.70919 5.61713 3.58455 6.01511 3.58455C6.33508 3.58455 6.60557 3.67367 6.79593 3.86404L6.79757 3.86567C6.97685 4.05439 7.06698 4.30607 7.06698 4.61955C7.06698 4.86397 6.97244 5.08544 6.81161 5.29096L6.80795 5.29563L6.66437 5.45581C6.66206 5.45839 6.65961 5.46083 6.65702 5.46313C6.39666 5.69409 6.18826 5.89429 6.03193 6.06512C5.87576 6.23576 5.77604 6.37233 5.72667 6.47741C5.70492 6.53329 5.68455 6.57529 5.66607 6.61341C5.62261 6.70301 5.58957 6.77114 5.57347 6.94768L5.57301 6.9719C5.56962 7.15047 5.71344 7.29705 5.89204 7.29705H5.93128C6.01707 7.29705 6.09045 7.25802 6.151 7.1902C6.21261 7.12121 6.2581 7.02486 6.2818 6.92247C6.33714 6.68343 6.45788 6.55227 6.59514 6.40317C6.60184 6.39589 6.60858 6.38857 6.61535 6.38119C6.64058 6.35371 6.66074 6.33313 6.68398 6.30942C6.68646 6.30689 6.68898 6.30432 6.69155 6.3017C6.71804 6.27464 6.75054 6.24125 6.80146 6.18662ZM6.30584 8.07507C6.20823 7.97745 6.08129 7.93268 5.92229 7.93268C5.77238 7.93268 5.64518 7.97707 5.54718 8.07507L5.54483 8.07742C5.44697 8.16829 5.39636 8.28682 5.39636 8.44174C5.39636 8.58689 5.44613 8.70736 5.54718 8.80841C5.64733 8.90855 5.77581 8.95924 5.92229 8.95924C6.06852 8.95924 6.19785 8.90865 6.29859 8.81566C6.40072 8.71304 6.45667 8.59226 6.45667 8.44174C6.45667 8.28682 6.4061 8.16824 6.30824 8.07738L6.30584 8.07507Z" fill="white"/>
</g>
<defs>
<clipPath id="clip0_284_8838">
<rect width="12" height="12" fill="white"/>
</clipPath>
</defs>
</svg>
