<svg width="20" height="20" viewBox="0 0 20 20" fill="none" xmlns="http://www.w3.org/2000/svg">
<g id="DS selection">
<path id="Vector" d="M4.375 6.875C4.87254 6.87478 5.35867 6.72593 5.77104 6.44753C6.1834 6.16914 6.50319 5.77389 6.68937 5.3125H17.5031C17.6689 5.3125 17.8279 5.24665 17.9451 5.12944C18.0623 5.01223 18.1281 4.85326 18.1281 4.6875C18.1281 4.52174 18.0623 4.36277 17.9451 4.24556C17.8279 4.12835 17.6689 4.0625 17.5031 4.0625H6.84375C6.68812 2.83125 5.64875 1.875 4.375 1.875C3.71196 1.875 3.07607 2.13839 2.60723 2.60723C2.13839 3.07607 1.875 3.71196 1.875 4.375C1.875 5.03804 2.13839 5.67393 2.60723 6.14277C3.07607 6.61161 3.71196 6.875 4.375 6.875ZM4.375 3.125C4.53919 3.12504 4.70177 3.15742 4.85345 3.22029C5.00513 3.28317 5.14294 3.3753 5.25901 3.49143C5.37509 3.60756 5.46715 3.74542 5.52995 3.89713C5.59274 4.04884 5.62504 4.21143 5.625 4.37562C5.62496 4.53982 5.59258 4.7024 5.52971 4.85407C5.46683 5.00575 5.3747 5.14356 5.25857 5.25964C5.14244 5.37571 5.00458 5.46777 4.85287 5.53057C4.70116 5.59337 4.53857 5.62567 4.37438 5.62563C4.04277 5.62554 3.72478 5.49373 3.49036 5.2592C3.25594 5.02466 3.12429 4.7066 3.12438 4.375C3.12446 4.0434 3.25627 3.72541 3.4908 3.49099C3.72534 3.25657 4.0434 3.12492 4.375 3.125ZM17.51 12.5H6.875C6.84563 12.5 6.82 12.5131 6.79187 12.5169C6.65746 11.9773 6.34664 11.4981 5.90876 11.1553C5.47089 10.8126 4.93107 10.6259 4.375 10.625C3.71196 10.625 3.07607 10.8884 2.60723 11.3572C2.13839 11.8261 1.875 12.462 1.875 13.125C1.875 13.788 2.13839 14.4239 2.60723 14.8928C3.07607 15.3616 3.71196 15.625 4.375 15.625C4.93107 15.6241 5.47089 15.4374 5.90876 15.0947C6.34664 14.7519 6.65746 14.2727 6.79187 13.7331C6.82 13.7369 6.84563 13.75 6.875 13.75H17.51C17.6758 13.75 17.8347 13.6842 17.9519 13.5669C18.0692 13.4497 18.135 13.2908 18.135 13.125C18.135 12.9592 18.0692 12.8003 17.9519 12.6831C17.8347 12.5658 17.6758 12.5 17.51 12.5ZM4.375 14.375C4.21081 14.375 4.04823 14.3426 3.89655 14.2797C3.74487 14.2168 3.60706 14.1247 3.49099 14.0086C3.37491 13.8924 3.28285 13.7546 3.22005 13.6029C3.15726 13.4512 3.12496 13.2886 3.125 13.1244C3.12504 12.9602 3.15742 12.7976 3.22029 12.6459C3.28317 12.4942 3.3753 12.3564 3.49143 12.2404C3.60756 12.1243 3.74542 12.0322 3.89713 11.9694C4.04884 11.9066 4.21143 11.8743 4.37562 11.8744C4.70723 11.8745 5.02522 12.0063 5.25964 12.2408C5.49406 12.4753 5.62571 12.7934 5.62563 13.125C5.62554 13.4566 5.49373 13.7746 5.2592 14.009C5.02466 14.2434 4.7066 14.3751 4.375 14.375ZM17.51 8.125H11.875C11.7092 8.125 11.5503 8.19085 11.4331 8.30806C11.3158 8.42527 11.25 8.58424 11.25 8.75C11.25 8.91576 11.3158 9.07473 11.4331 9.19194C11.5503 9.30915 11.7092 9.375 11.875 9.375H17.51C17.6758 9.375 17.8347 9.30915 17.9519 9.19194C18.0692 9.07473 18.135 8.91576 18.135 8.75C18.135 8.58424 18.0692 8.42527 17.9519 8.30806C17.8347 8.19085 17.6758 8.125 17.51 8.125ZM17.51 16.25H11.875C11.7092 16.25 11.5503 16.3158 11.4331 16.4331C11.3158 16.5503 11.25 16.7092 11.25 16.875C11.25 17.0408 11.3158 17.1997 11.4331 17.3169C11.5503 17.4342 11.7092 17.5 11.875 17.5H17.51C17.6758 17.5 17.8347 17.4342 17.9519 17.3169C18.0692 17.1997 18.135 17.0408 18.135 16.875C18.135 16.7092 18.0692 16.5503 17.9519 16.4331C17.8347 16.3158 17.6758 16.25 17.51 16.25Z" fill="white"/>
</g>
</svg>
