<svg width="31" height="30" viewBox="0 0 31 30" fill="none" xmlns="http://www.w3.org/2000/svg">
<g id="edit polygon">
<g id="Group 18">
<path id="Ellipse 45 (Stroke)" fill-rule="evenodd" clip-rule="evenodd" d="M7.95427 5.68467C7.25997 5.68467 6.69712 6.24752 6.69712 6.94182C6.69712 7.63612 7.25997 8.19897 7.95427 8.19897C8.64858 8.19897 9.21142 7.63612 9.21142 6.94182C9.21142 6.24752 8.64858 5.68467 7.95427 5.68467ZM5.2749 6.94182C5.2749 5.46205 6.4745 4.26245 7.95427 4.26245C9.43405 4.26245 10.6336 5.46205 10.6336 6.94182C10.6336 8.4216 9.43405 9.62119 7.95427 9.62119C6.4745 9.62119 5.2749 8.4216 5.2749 6.94182Z" fill="white"/>
<path id="Ellipse 46 (Stroke)" fill-rule="evenodd" clip-rule="evenodd" d="M23.527 5.68467C22.8327 5.68467 22.2699 6.24752 22.2699 6.94183C22.2699 7.63613 22.8327 8.19898 23.527 8.19898C24.2213 8.19898 24.7842 7.63613 24.7842 6.94183C24.7842 6.24752 24.2213 5.68467 23.527 5.68467ZM20.8477 6.94183C20.8477 5.46205 22.0473 4.26245 23.527 4.26245C25.0068 4.26245 26.2064 5.46205 26.2064 6.94183C26.2064 8.4216 25.0068 9.6212 23.527 9.6212C22.0473 9.6212 20.8477 8.4216 20.8477 6.94183Z" fill="white"/>
<path id="Ellipse 47 (Stroke)" fill-rule="evenodd" clip-rule="evenodd" d="M7.95427 21.4308C7.25997 21.4308 6.69712 21.9936 6.69712 22.6879C6.69712 23.3822 7.25997 23.9451 7.95427 23.9451C8.64858 23.9451 9.21142 23.3822 9.21142 22.6879C9.21142 21.9936 8.64858 21.4308 7.95427 21.4308ZM5.2749 22.6879C5.2749 21.2081 6.4745 20.0085 7.95427 20.0085C9.43405 20.0085 10.6336 21.2081 10.6336 22.6879C10.6336 24.1677 9.43405 25.3673 7.95427 25.3673C6.4745 25.3673 5.2749 24.1677 5.2749 22.6879Z" fill="white"/>
<path id="Ellipse 48 (Stroke)" fill-rule="evenodd" clip-rule="evenodd" d="M23.527 21.4308C22.8327 21.4308 22.2699 21.9936 22.2699 22.6879C22.2699 23.3822 22.8327 23.9451 23.527 23.9451C24.2213 23.9451 24.7842 23.3822 24.7842 22.6879C24.7842 21.9936 24.2213 21.4308 23.527 21.4308ZM20.8477 22.6879C20.8477 21.2081 22.0473 20.0085 23.527 20.0085C25.0068 20.0085 26.2064 21.2081 26.2064 22.6879C26.2064 24.1677 25.0068 25.3673 23.527 25.3673C22.0473 25.3673 20.8477 24.1677 20.8477 22.6879Z" fill="white"/>
<path id="Subtract (Stroke)" fill-rule="evenodd" clip-rule="evenodd" d="M9.21142 6.23071H22.2701V6.94182C22.2701 7.63613 22.8329 8.19903 23.5272 8.19903C23.5649 8.19903 23.6021 8.19739 23.6386 8.19421L24.4115 8.12685V21.5029L23.6386 21.4356C23.6021 21.4324 23.5649 21.4308 23.5272 21.4308C22.8329 21.4308 22.2701 21.9936 22.2701 22.6879L22.2701 23.399H9.21143L9.21142 22.6879C9.21142 21.9936 8.64858 21.4308 7.95428 21.4308H7.24316L7.24317 8.19906L7.95428 8.19906C8.64858 8.19906 9.21142 7.63621 9.21142 6.94191V6.23071ZM10.5383 7.65294C10.2889 8.56115 9.57359 9.27652 8.66539 9.52589L8.66539 20.1039C9.57356 20.3533 10.2889 21.0686 10.5383 21.9768H20.9432C21.2082 21.0116 21.9995 20.2643 22.9892 20.0626V9.56723C21.9995 9.36549 21.2082 8.61812 20.9432 7.65294H10.5383Z" fill="white"/>
</g>
</g>
</svg>
