<svg width="100" height="100" viewBox="0 0 100 100" fill="none" xmlns="http://www.w3.org/2000/svg">
<g id="tips/info-circle">
<g id="Group 16">
<path id="Union" fill-rule="evenodd" clip-rule="evenodd" d="M49.9997 20C33.4311 20 19.9997 33.4314 19.9997 50C19.9997 66.5685 33.4311 80 49.9997 80C66.5682 80 79.9997 66.5685 79.9997 50C79.9997 33.4314 66.5682 20 49.9997 20ZM13.333 50C13.333 29.7495 29.7492 13.3333 49.9997 13.3333C70.2501 13.3333 86.6663 29.7495 86.6663 50C86.6663 70.2504 70.2501 86.6666 49.9997 86.6666C29.7492 86.6666 13.333 70.2504 13.333 50ZM53.9995 66.7651C53.9995 68.9742 52.2087 70.7651 49.9995 70.7651C47.7904 70.7651 45.9995 68.9742 45.9995 66.7651C45.9995 64.5559 47.7904 62.7651 49.9995 62.7651C52.2087 62.7651 53.9995 64.5559 53.9995 66.7651ZM49.8914 29.6533C48.0505 29.6533 46.5581 31.1456 46.5581 32.9866V56.4317C46.5581 58.2727 48.0505 59.7651 49.8914 59.7651C51.7324 59.7651 53.2248 58.2727 53.2248 56.4317V32.9866C53.2248 31.1456 51.7324 29.6533 49.8914 29.6533Z" fill="#EAA113"/>
</g>
</g>
</svg>
