<svg width="20" height="20" viewBox="0 0 20 20" fill="none" xmlns="http://www.w3.org/2000/svg">
  <g id="&#229;&#143;&#175;&#232;&#167;&#129;icon">
    <path id="Vector" d="M15.3021 14.49C13.7727 15.5605 11.9374 16.1723 10.0002 16.1723C8.11389 16.1723 6.27859 15.6115 4.6982 14.49C1.69036 12.3998 1.3335 10.0547 1.3335 10.0547C1.3335 10.0547 1.69036 7.70956 4.6982 5.61936C6.22761 4.54878 8.06291 3.93701 10.0002 3.93701C11.8864 3.93701 13.7217 4.4978 15.3021 5.61936C18.157 7.65858 18.6668 10.0547 18.6668 10.0547C18.0551 12.0939 16.7806 13.4194 15.3021 14.49ZM10.0002 4.95662C6.7884 4.95662 4.13742 6.89387 2.3531 10.0547C3.57663 13.0115 6.7884 15.1527 10.0002 15.1527C13.2119 15.1527 16.4237 13.0115 17.6472 10.0547C16.4237 7.0978 13.2119 4.95662 10.0002 4.95662V4.95662ZM10.0002 13.3684C8.21585 13.3684 6.73742 11.788 6.73742 10.0547C6.73742 8.32133 8.21585 6.74093 10.0002 6.74093C11.7845 6.74093 13.2119 8.32133 13.2119 10.0547C13.2119 11.788 11.7845 13.3684 10.0002 13.3684ZM10.0002 7.81152C8.87859 7.81152 7.80801 8.93309 7.80801 10.0547C7.80801 11.1252 8.87859 12.2978 10.0002 12.2978C11.1217 12.2978 12.1413 11.1762 12.1923 10.0547C12.2433 8.93309 11.1217 7.81152 10.0002 7.81152Z" fill="#9E9E9E" />
  </g>
</svg>