<svg width="21" height="20" viewBox="0 0 21 20" fill="none" xmlns="http://www.w3.org/2000/svg">
<g id="&#233;&#154;&#144;&#232;&#151;&#143;icon">
<g id="Group 11">
<path id="Subtract" fill-rule="evenodd" clip-rule="evenodd" d="M4.3856 6.06053C2.21266 7.93958 1.93091 9.79111 1.93091 9.79111C1.93091 9.79111 2.28777 12.1362 5.29561 14.2264C6.87601 15.348 8.7113 15.9088 10.5976 15.9088C11.6729 15.9088 12.7168 15.7203 13.6945 15.3694L12.8672 14.5422C12.1286 14.7675 11.3631 14.8891 10.5976 14.8891C7.38581 14.8891 4.17405 12.748 2.95052 9.79111C3.59434 8.65062 4.351 7.66943 5.20613 6.88106L4.3856 6.06053ZM7.41525 9.09018C7.36264 9.31849 7.33483 9.55336 7.33483 9.79111C7.33483 11.5244 8.81326 13.1048 10.5976 13.1048C10.8525 13.1048 11.1001 13.0726 11.3373 13.0122L10.3389 12.0138C9.42655 11.8708 8.60229 10.999 8.43591 10.1108L7.41525 9.09018ZM12.7751 9.95783L13.6397 10.8224C13.7497 10.4931 13.8093 10.1453 13.8093 9.79111C13.8093 8.05777 12.3819 6.47738 10.5976 6.47738C10.2136 6.47738 9.84387 6.55055 9.49995 6.68267L10.3792 7.56195C10.4516 7.55274 10.5245 7.54797 10.5976 7.54797C11.7191 7.54797 12.8407 8.66954 12.7897 9.79111C12.7872 9.84673 12.7823 9.90235 12.7751 9.95783ZM7.97376 5.15649C8.79717 4.8532 9.67419 4.69307 10.5976 4.69307C13.8093 4.69307 17.0211 6.83425 18.2446 9.79111C17.7313 11.0317 16.868 12.1287 15.8015 12.9842L16.546 13.7288C17.7435 12.7445 18.7437 11.5261 19.2642 9.79111C19.2642 9.79111 18.7544 7.39503 15.8995 5.35581C14.3191 4.23425 12.4838 3.67346 10.5976 3.67346C9.39629 3.67346 8.23422 3.9087 7.15997 4.3427L7.97376 5.15649Z" fill="#9E9E9E"/>
<path id="Rectangle 10" d="M4.67171 4.84933C4.46497 4.64258 4.46497 4.30737 4.67171 4.10062C4.87846 3.89388 5.21367 3.89388 5.42042 4.10062L16.5232 15.2034C16.7299 15.4101 16.7299 15.7453 16.5232 15.9521C16.3164 16.1588 15.9812 16.1588 15.7745 15.9521L4.67171 4.84933Z" fill="#9E9E9E"/>
</g>
</g>
</svg>
