<svg width="1920" height="80" viewBox="0 0 1920 80" fill="none" xmlns="http://www.w3.org/2000/svg">
<rect width="1920" height="80" fill="#333333"/>
<path d="M81.3692 19H79.0146C77.862 25.1082 53.1271 29.2132 20.3978 29.9899V30.3412H139.992V29.9652C107.244 29.2132 82.5279 25.1082 81.3692 19Z" fill="white"/>
<path d="M81.3692 42.2562H79.0146C77.862 36.148 53.1271 32.043 20.3978 31.2664V30.8904H139.992V31.2664C107.244 32.043 82.5279 36.148 81.3692 42.2562Z" fill="white"/>
<path d="M104.347 55.7854C103.99 55.6683 103.626 55.5697 103.306 55.4834C102.264 55.206 101.185 54.9225 101.185 53.924C101.185 53.4802 101.389 52.4447 103.226 52.4447C104.15 52.4468 105.04 52.7891 105.728 53.4062L105.771 53.4494L106.548 52.6974L106.505 52.6543C106.09 52.2362 105.592 51.9103 105.043 51.6979C104.494 51.4855 103.906 51.3913 103.318 51.4215C102.428 51.3789 101.553 51.6591 100.853 52.2105C100.575 52.4124 100.349 52.6763 100.191 52.9813C100.034 53.2864 99.9501 53.6239 99.9465 53.9671C99.9465 55.3725 100.92 55.9642 102.381 56.4326C102.72 56.5497 102.998 56.6299 103.318 56.71C103.871 56.8328 104.401 57.0408 104.89 57.3264C105.086 57.445 105.249 57.6111 105.364 57.8092C105.48 58.0074 105.543 58.2313 105.549 58.4605C105.546 58.6802 105.488 58.8957 105.38 59.0873C105.273 59.2789 105.119 59.4406 104.933 59.5576C104.491 59.828 103.977 59.955 103.46 59.9213C102.878 59.9214 102.304 59.7921 101.778 59.5426C101.252 59.2931 100.789 58.9298 100.421 58.479L100.378 58.4297L99.5274 59.1385L99.5582 59.1878C100.359 60.3342 101.765 60.9629 103.515 60.9629C104.382 60.9966 105.23 60.7115 105.901 60.1617C106.186 59.9457 106.417 59.6661 106.576 59.3451C106.734 59.0241 106.815 58.6705 106.813 58.3125C106.825 57.8915 106.709 57.4767 106.48 57.123C106.018 56.3895 105.334 56.1183 104.347 55.7854Z" fill="white"/>
<path d="M84.3893 56.4689L84.377 56.4935L84.9748 57.7694L87.7238 51.6304H86.4726L84.3893 56.4689Z" fill="white"/>
<path d="M94.3191 51.6304H93.1356V60.6725H94.3191V51.6304Z" fill="white"/>
<path d="M112.385 51.6304H111.201V60.6725H112.385V51.6304Z" fill="white"/>
<path d="M138.858 51.6304V58.6262V60.463L139.031 60.6725H139.986V51.6304H138.858Z" fill="white"/>
<path d="M133.181 51.6304H132.238V60.6725H133.366V53.7384L136.762 57.8989V56.0128L133.2 51.655L133.181 51.6304Z" fill="white"/>
<path d="M125.859 52.7895C125.08 51.9733 124.041 51.4539 122.92 51.3203C121.8 51.1867 120.668 51.4474 119.719 52.0575C118.77 52.6676 118.063 53.5892 117.719 54.6639C117.376 55.7386 117.417 56.8994 117.836 57.947C118.255 58.9946 119.026 59.8636 120.016 60.4048C121.006 60.9461 122.153 61.1258 123.261 60.913C124.369 60.7003 125.369 60.1084 126.088 59.239C126.807 58.3696 127.201 57.277 127.202 56.1487C127.219 55.5268 127.108 54.9081 126.877 54.3306C126.646 53.753 126.299 53.2286 125.859 52.7895V52.7895ZM124.959 58.7251C124.647 59.0525 124.271 59.3115 123.854 59.4856C123.437 59.6596 122.988 59.7449 122.537 59.736C122.089 59.7409 121.644 59.6543 121.231 59.4816C120.818 59.3088 120.444 59.0535 120.133 58.7313C119.487 58.0275 119.129 57.107 119.129 56.1518C119.129 55.1965 119.487 54.2761 120.133 53.5723C120.444 53.25 120.818 52.9947 121.231 52.8219C121.644 52.6492 122.089 52.5626 122.537 52.5676C122.981 52.5671 123.42 52.6552 123.83 52.8267C124.239 52.9981 124.611 53.2495 124.922 53.5661C125.566 54.2685 125.927 55.1853 125.934 56.1385C125.94 57.0917 125.593 58.0135 124.959 58.7251V58.7251Z" fill="white"/>
<path d="M49.7123 51.6V51.5569H48.7261L44.7505 60.6237L44.7074 60.7161H45.8908L46.2545 59.8902H52.1531L52.5168 60.7161H53.7495L49.7123 51.6ZM46.6305 59.0334L47.3701 57.2398L49.2192 53.0731L51.7957 59.0334H46.6305Z" fill="white"/>
<path d="M34.4387 51.5569H33.2738V52.6232H34.4387V51.5569Z" fill="white"/>
<path d="M73.6028 55.7488H71.8092V57.6534H73.6028V55.7488Z" fill="white"/>
<path d="M79.7974 51.6304H78.54L82.7744 60.6355L82.7929 60.6725H83.6743L83.8346 60.315L79.8097 51.6674L79.7974 51.6304Z" fill="white"/>
<path d="M36.5405 60.7161H37.7486V52.6232H41.0338V51.5569H36.5343L36.5405 60.7161Z" fill="white"/>
<path d="M60.4987 51.5569H59.3276V60.7161H60.4987V51.5569Z" fill="white"/>
<path d="M64.8689 56.8452C65.3616 56.6486 65.7837 56.3084 66.0805 55.8687C66.3773 55.429 66.535 54.9102 66.5331 54.3797C66.5506 54.0262 66.4981 53.6727 66.3785 53.3395C66.259 53.0063 66.0748 52.7 65.8366 52.4382C65.1207 51.8527 64.215 51.55 63.291 51.5876H62.6006V52.6416H62.6623H63.217H63.3649L63.6916 52.6786C63.8231 52.6999 63.9529 52.7308 64.0799 52.771H64.1231H64.1601L64.4066 52.8758L64.4744 52.919H64.5052C64.5661 52.9528 64.6239 52.992 64.6778 53.0361L64.7641 53.1162C64.812 53.1589 64.8554 53.2064 64.8935 53.2579L64.9613 53.3504C64.9961 53.4036 65.027 53.4592 65.0538 53.5168V53.5168C65.0687 53.5423 65.081 53.5691 65.0908 53.597C65.119 53.6664 65.1397 53.7388 65.1524 53.8127C65.1524 53.8127 65.1524 53.8127 65.1524 53.8558C65.1559 53.8762 65.1559 53.8971 65.1524 53.9175C65.1618 54.0364 65.1618 54.156 65.1524 54.275C65.1616 54.3795 65.1616 54.4847 65.1524 54.5893C65.1321 54.6916 65.1054 54.7924 65.0723 54.8913C64.9118 55.2607 64.6421 55.5721 64.2994 55.7836C63.9567 55.9952 63.5575 56.0968 63.1554 56.0748H62.539V56.6542L65.3681 60.6051H66.792L64.2217 57.1103L64.8689 56.8452Z" fill="white"/>
<path d="M25.2856 55.7796C24.9404 55.6625 24.5829 55.5762 24.2439 55.4899C23.1961 55.2249 22.1051 54.9475 22.1051 53.9922C22.1051 53.5669 22.3085 52.5807 24.1638 52.5807C25.0902 52.5795 25.9865 52.9096 26.6909 53.5114L26.7402 53.5484L27.5353 52.8149L27.486 52.7656C27.0565 52.356 26.5481 52.0382 25.9918 51.8316C25.4354 51.6249 24.8428 51.5338 24.2501 51.5637C23.354 51.5167 22.4694 51.7825 21.7476 52.3156C21.4679 52.5053 21.238 52.7594 21.0771 53.0565C20.9162 53.3537 20.829 53.6851 20.8231 54.023C20.8231 55.379 21.8154 55.946 23.2885 56.3775C23.6337 56.4884 23.9419 56.5686 24.2378 56.6426C24.7942 56.7569 25.3303 56.9543 25.828 57.2281C26.021 57.3365 26.1829 57.4926 26.2984 57.6814C26.4139 57.8703 26.479 58.0856 26.4875 58.3067C26.4816 58.5201 26.4221 58.7285 26.3143 58.9127C26.2066 59.0969 26.0542 59.251 25.8711 59.3607C25.4206 59.6192 24.904 59.7392 24.3857 59.7059C23.8019 59.7096 23.2243 59.587 22.6924 59.3465C22.1604 59.1061 21.6868 58.7535 21.3038 58.3129L21.2607 58.2698L20.3916 58.9601L20.4286 59.0094C21.2422 60.1127 22.666 60.7229 24.4412 60.7229C25.3122 60.7589 26.1679 60.486 26.8573 59.9525C27.1444 59.7461 27.3776 59.4737 27.5375 59.1584C27.6973 58.843 27.779 58.4939 27.7757 58.1403C27.7857 57.7321 27.6671 57.331 27.4367 56.9939C26.9744 56.359 26.2841 56.1001 25.2856 55.7796Z" fill="white"/>
<rect x="1860" y="20" width="40" height="40" rx="20" fill="#608DDF"/>
<path d="M1875.21 45L1878.98 39.974L1875.35 35.13H1877.44L1880 38.672L1882.56 35.13H1884.66L1881.04 39.974L1884.79 45H1882.69L1880 41.304L1877.33 45H1875.21Z" fill="white"/>
<path d="M1835.8 48.6607H1824.2C1823.78 48.6607 1823.38 48.4958 1823.09 48.2023C1822.8 47.9088 1822.63 47.5106 1822.63 47.0955V33.5303C1822.63 33.1152 1822.8 32.7171 1823.09 32.4235C1823.38 32.13 1823.78 31.9651 1824.2 31.9651H1825.89C1826.06 31.9651 1826.23 32.0338 1826.35 32.1561C1826.47 32.2784 1826.54 32.4443 1826.54 32.6173C1826.54 32.7902 1826.47 32.9561 1826.35 33.0784C1826.23 33.2007 1826.06 33.2694 1825.89 33.2694H1824.2C1824.13 33.2694 1824.06 33.2969 1824.01 33.3458C1823.96 33.3948 1823.93 33.4611 1823.93 33.5303V47.0955L1824.2 47.3564H1835.8L1836.07 47.0955V33.5303C1836.07 33.4611 1836.04 33.3948 1835.99 33.3458C1835.94 33.2969 1835.87 33.2694 1835.8 33.2694H1833.72C1833.54 33.2694 1833.38 33.2007 1833.26 33.0784C1833.13 32.9561 1833.07 32.7902 1833.07 32.6173C1833.07 32.4443 1833.13 32.2784 1833.26 32.1561C1833.38 32.0338 1833.54 31.9651 1833.72 31.9651H1835.8C1836.22 31.9651 1836.62 32.13 1836.91 32.4235C1837.2 32.7171 1837.37 33.1152 1837.37 33.5303V47.0955C1837.37 47.5106 1837.2 47.9088 1836.91 48.2023C1836.62 48.4958 1836.22 48.6607 1835.8 48.6607V48.6607Z" fill="white"/>
<path d="M1833.72 38.4867H1826.28C1826.11 38.4867 1825.94 38.418 1825.82 38.2957C1825.7 38.1734 1825.63 38.0075 1825.63 37.8346C1825.63 37.6616 1825.7 37.4957 1825.82 37.3734C1825.94 37.2511 1826.11 37.1824 1826.28 37.1824H1833.72C1833.88 37.208 1834.03 37.285 1834.15 37.4022C1834.27 37.5194 1834.34 37.6708 1834.37 37.8346C1834.37 38.0075 1834.3 38.1734 1834.18 38.2957C1834.06 38.418 1833.89 38.4867 1833.72 38.4867V38.4867ZM1833.72 41.6172H1826.28C1826.11 41.6172 1825.94 41.5485 1825.82 41.4261C1825.7 41.3038 1825.63 41.138 1825.63 40.965C1825.63 40.792 1825.7 40.6261 1825.82 40.5038C1825.94 40.3815 1826.11 40.3128 1826.28 40.3128H1833.72C1833.89 40.3128 1834.06 40.3815 1834.18 40.5038C1834.3 40.6261 1834.37 40.792 1834.37 40.965C1834.37 41.138 1834.3 41.3038 1834.18 41.4261C1834.06 41.5485 1833.89 41.6172 1833.72 41.6172V41.6172ZM1829.8 44.6172H1826.28C1826.11 44.6172 1825.94 44.5485 1825.82 44.4261C1825.7 44.3038 1825.63 44.138 1825.63 43.965C1825.63 43.792 1825.7 43.6261 1825.82 43.5038C1825.94 43.3815 1826.11 43.3128 1826.28 43.3128H1829.8C1829.98 43.3128 1830.14 43.3815 1830.27 43.5038C1830.39 43.6261 1830.46 43.792 1830.46 43.965C1830.46 44.138 1830.39 44.3038 1830.27 44.4261C1830.14 44.5485 1829.98 44.6172 1829.8 44.6172V44.6172ZM1832.41 34.5737H1827.59C1827.35 34.5744 1827.12 34.5266 1826.91 34.4333C1826.69 34.3401 1826.5 34.2034 1826.34 34.0319C1826.18 33.8603 1826.06 33.6576 1825.98 33.4366C1825.9 33.2156 1825.87 32.981 1825.89 32.7476V32.3563C1825.89 31.9066 1826.07 31.4753 1826.39 31.1573C1826.71 30.8393 1827.14 30.6606 1827.59 30.6606H1832.41C1832.86 30.6606 1833.29 30.8393 1833.61 31.1573C1833.93 31.4753 1834.11 31.9066 1834.11 32.3563V32.7476C1834.13 32.981 1834.1 33.2156 1834.02 33.4366C1833.94 33.6576 1833.82 33.8603 1833.66 34.0319C1833.5 34.2034 1833.31 34.3401 1833.09 34.4333C1832.88 34.5266 1832.65 34.5744 1832.41 34.5737V34.5737ZM1827.59 31.965C1827.48 31.965 1827.38 32.0062 1827.31 32.0796C1827.24 32.153 1827.2 32.2525 1827.2 32.3563V32.7476C1827.2 33.0085 1827.33 33.2693 1827.59 33.2693H1832.41C1832.53 33.2398 1832.63 33.172 1832.7 33.0771C1832.77 32.9823 1832.81 32.8661 1832.8 32.7476V32.3563C1832.77 32.2664 1832.72 32.1847 1832.65 32.1171C1832.58 32.0495 1832.5 31.9975 1832.41 31.965H1827.59Z" fill="white"/>
<rect width="1920" height="80" fill="black" fill-opacity="0.4"/>
<rect x="1807" y="17" width="46" height="46" rx="23" fill="#3A3A3A"/>
<path d="M1835.8 48.6607H1824.2C1823.78 48.6607 1823.38 48.4958 1823.09 48.2023C1822.8 47.9088 1822.63 47.5106 1822.63 47.0955V33.5303C1822.63 33.1152 1822.8 32.7171 1823.09 32.4235C1823.38 32.13 1823.78 31.9651 1824.2 31.9651H1825.89C1826.06 31.9651 1826.23 32.0338 1826.35 32.1561C1826.47 32.2784 1826.54 32.4443 1826.54 32.6173C1826.54 32.7902 1826.47 32.9561 1826.35 33.0784C1826.23 33.2007 1826.06 33.2694 1825.89 33.2694H1824.2C1824.13 33.2694 1824.06 33.2969 1824.01 33.3458C1823.96 33.3948 1823.93 33.4611 1823.93 33.5303V47.0955L1824.2 47.3564H1835.8L1836.07 47.0955V33.5303C1836.07 33.4611 1836.04 33.3948 1835.99 33.3458C1835.94 33.2969 1835.87 33.2694 1835.8 33.2694H1833.72C1833.54 33.2694 1833.38 33.2007 1833.26 33.0784C1833.13 32.9561 1833.07 32.7902 1833.07 32.6173C1833.07 32.4443 1833.13 32.2784 1833.26 32.1561C1833.38 32.0338 1833.54 31.9651 1833.72 31.9651H1835.8C1836.22 31.9651 1836.62 32.13 1836.91 32.4235C1837.2 32.7171 1837.37 33.1152 1837.37 33.5303V47.0955C1837.37 47.5106 1837.2 47.9088 1836.91 48.2023C1836.62 48.4958 1836.22 48.6607 1835.8 48.6607V48.6607Z" fill="white"/>
<path d="M1833.72 38.4867H1826.28C1826.11 38.4867 1825.94 38.418 1825.82 38.2957C1825.7 38.1734 1825.63 38.0075 1825.63 37.8346C1825.63 37.6616 1825.7 37.4957 1825.82 37.3734C1825.94 37.2511 1826.11 37.1824 1826.28 37.1824H1833.72C1833.88 37.208 1834.03 37.285 1834.15 37.4022C1834.27 37.5194 1834.34 37.6708 1834.37 37.8346C1834.37 38.0075 1834.3 38.1734 1834.18 38.2957C1834.06 38.418 1833.89 38.4867 1833.72 38.4867V38.4867ZM1833.72 41.6172H1826.28C1826.11 41.6172 1825.94 41.5485 1825.82 41.4261C1825.7 41.3038 1825.63 41.138 1825.63 40.965C1825.63 40.792 1825.7 40.6261 1825.82 40.5038C1825.94 40.3815 1826.11 40.3128 1826.28 40.3128H1833.72C1833.89 40.3128 1834.06 40.3815 1834.18 40.5038C1834.3 40.6261 1834.37 40.792 1834.37 40.965C1834.37 41.138 1834.3 41.3038 1834.18 41.4261C1834.06 41.5485 1833.89 41.6172 1833.72 41.6172V41.6172ZM1829.8 44.6172H1826.28C1826.11 44.6172 1825.94 44.5485 1825.82 44.4261C1825.7 44.3038 1825.63 44.138 1825.63 43.965C1825.63 43.792 1825.7 43.6261 1825.82 43.5038C1825.94 43.3815 1826.11 43.3128 1826.28 43.3128H1829.8C1829.98 43.3128 1830.14 43.3815 1830.27 43.5038C1830.39 43.6261 1830.46 43.792 1830.46 43.965C1830.46 44.138 1830.39 44.3038 1830.27 44.4261C1830.14 44.5485 1829.98 44.6172 1829.8 44.6172V44.6172ZM1832.41 34.5737H1827.59C1827.35 34.5744 1827.12 34.5266 1826.91 34.4333C1826.69 34.3401 1826.5 34.2034 1826.34 34.0319C1826.18 33.8603 1826.06 33.6576 1825.98 33.4366C1825.9 33.2156 1825.87 32.981 1825.89 32.7476V32.3563C1825.89 31.9066 1826.07 31.4753 1826.39 31.1573C1826.71 30.8393 1827.14 30.6606 1827.59 30.6606H1832.41C1832.86 30.6606 1833.29 30.8393 1833.61 31.1573C1833.93 31.4753 1834.11 31.9066 1834.11 32.3563V32.7476C1834.13 32.981 1834.1 33.2156 1834.02 33.4366C1833.94 33.6576 1833.82 33.8603 1833.66 34.0319C1833.5 34.2034 1833.31 34.3401 1833.09 34.4333C1832.88 34.5266 1832.65 34.5744 1832.41 34.5737V34.5737ZM1827.59 31.965C1827.48 31.965 1827.38 32.0062 1827.31 32.0796C1827.24 32.153 1827.2 32.2525 1827.2 32.3563V32.7476C1827.2 33.0085 1827.33 33.2693 1827.59 33.2693H1832.41C1832.53 33.2398 1832.63 33.172 1832.7 33.0771C1832.77 32.9823 1832.81 32.8661 1832.8 32.7476V32.3563C1832.77 32.2664 1832.72 32.1847 1832.65 32.1171C1832.58 32.0495 1832.5 31.9975 1832.41 31.965H1827.59Z" fill="white"/>
</svg>
