<svg width="20" height="20" viewBox="0 0 20 20" fill="none" xmlns="http://www.w3.org/2000/svg">
<path d="M12.3989 12.9265L12.0873 12.4137C11.9082 12.5226 11.7989 12.7169 11.7989 12.9265H12.3989ZM7.55805 12.9H8.15805C8.15805 12.6926 8.05096 12.4999 7.87485 12.3904L7.55805 12.9ZM7.55805 14.0548H6.95805C6.95805 14.3862 7.22667 14.6548 7.55805 14.6548V14.0548ZM12.3989 14.0548V14.6548C12.7302 14.6548 12.9989 14.3862 12.9989 14.0548H12.3989ZM14.36 8.37148C14.36 10.0262 13.4396 11.5919 12.0873 12.4137L12.7105 13.4392C14.4125 12.4049 15.56 10.4551 15.56 8.37148H14.36ZM10 4.0115C12.408 4.0115 14.36 5.96353 14.36 8.37148H15.56C15.56 5.30079 13.0707 2.8115 10 2.8115V4.0115ZM5.64004 8.37148C5.64004 5.96353 7.59207 4.0115 10 4.0115V2.8115C6.92933 2.8115 4.44004 5.30079 4.44004 8.37148H5.64004ZM7.87485 12.3904C6.54298 11.5624 5.64004 10.0104 5.64004 8.37148H4.44004C4.44004 10.4356 5.56615 12.368 7.24124 13.4095L7.87485 12.3904ZM8.15805 14.0548V12.9H6.95805V14.0548H8.15805ZM12.3989 13.4548H7.55805V14.6548H12.3989V13.4548ZM11.7989 12.9265V14.0548H12.9989V12.9265H11.7989Z" fill="white"/>
<path fill-rule="evenodd" clip-rule="evenodd" d="M7.46423 15.588C7.18809 15.588 6.96423 15.8119 6.96423 16.088V16.2923C6.96423 16.5685 7.18809 16.7923 7.46423 16.7923H8.70697C8.88256 17.2538 9.39509 17.5877 10 17.5877C10.6049 17.5877 11.1174 17.2538 11.293 16.7923H12.5161C12.7922 16.7923 13.0161 16.5685 13.0161 16.2923V16.088C13.0161 15.8119 12.7922 15.588 12.5161 15.588H7.46423Z" fill="white"/>
</svg>
