<svg width="20" height="21" viewBox="0 0 20 21" fill="none" xmlns="http://www.w3.org/2000/svg">
<g id="help">
<path id="Vector" d="M10 1.66064C14.9706 1.66064 19 5.69006 19 10.6606C19 15.6312 14.9706 19.6606 10 19.6606C5.02942 19.6606 1 15.6312 1 10.6606C1 5.69006 5.02942 1.66064 10 1.66064ZM10 2.79398C5.76583 2.79398 2.13333 6.42648 2.13333 10.6606C2.13333 14.8948 5.76583 18.5273 10 18.5273C14.2342 18.5273 17.8667 14.8948 17.8667 10.6606C17.8667 6.42648 14.2342 2.79398 10 2.79398Z" fill="white"/>
<path id="Vector (Stroke)" fill-rule="evenodd" clip-rule="evenodd" d="M11.3356 10.9717C11.3391 10.9679 11.3429 10.9643 11.3467 10.9609C12.0099 10.3824 12.3916 10.0268 12.5095 9.88335C12.8362 9.46444 13.011 8.92256 13.011 8.26144C13.011 7.45429 12.7437 6.82299 12.2184 6.36339L12.2169 6.36201C11.6882 5.8862 10.9958 5.65519 10.1235 5.65519C9.11238 5.65519 8.33952 5.94115 7.7839 6.51L7.78267 6.51126C7.36577 6.92816 7.10228 7.45764 6.99527 8.11276C6.94729 8.40651 7.19518 8.67394 7.52894 8.67394C7.84608 8.67394 8.11514 8.40943 8.19394 8.05794C8.25974 7.76445 8.36895 7.51099 8.52513 7.30195C8.84324 6.84261 9.36174 6.63488 10.025 6.63488C10.5583 6.63488 11.0091 6.78342 11.3264 7.10068L11.3291 7.1034C11.6279 7.41794 11.7782 7.8374 11.7782 8.35988C11.7782 8.76723 11.6206 9.13636 11.3525 9.47888L11.3464 9.48667L11.1071 9.75364C11.1033 9.75794 11.0992 9.76201 11.0949 9.76584C10.661 10.1508 10.3136 10.4844 10.0531 10.7692C9.79279 11.0536 9.62659 11.2812 9.54431 11.4563C9.50806 11.5494 9.47411 11.6194 9.4433 11.683C9.37087 11.8323 9.3158 11.9459 9.28897 12.2401L9.2882 12.2805C9.28255 12.5781 9.52226 12.8224 9.81992 12.8224H9.88533C10.0283 12.8224 10.1506 12.7573 10.2515 12.6443C10.3542 12.5293 10.43 12.3687 10.4695 12.1981C10.5618 11.7997 10.763 11.5811 10.9918 11.3326C11.0029 11.3204 11.0142 11.3082 11.0254 11.2959C11.0675 11.2501 11.1011 11.2158 11.1398 11.1763C11.144 11.1721 11.1482 11.1678 11.1524 11.1635C11.1966 11.1184 11.2508 11.0627 11.3356 10.9717ZM10.5096 14.1191C10.3469 13.9564 10.1353 13.8818 9.87035 13.8818C9.6205 13.8818 9.40849 13.9557 9.24516 14.1191L9.24123 14.123C9.07814 14.2744 8.99378 14.472 8.99378 14.7302C8.99378 14.9721 9.07674 15.1729 9.24516 15.3413C9.41207 15.5082 9.6262 15.5927 9.87035 15.5927C10.1141 15.5927 10.3296 15.5084 10.4975 15.3534C10.6677 15.1824 10.761 14.9811 10.761 14.7302C10.761 14.472 10.6767 14.2744 10.5136 14.1229L10.5096 14.1191Z" fill="white"/>
</g>
</svg>
