<svg width="35" height="35" viewBox="0 0 35 35" fill="none" xmlns="http://www.w3.org/2000/svg">
<g id="&#229;&#155;&#190;&#229;&#177;&#130;button">
<path id="Rectangle 85" d="M4.93945 1.16064H30.9395C32.8724 1.16064 34.4395 2.72765 34.4395 4.66064V30.6606C34.4395 32.5936 32.8724 34.1606 30.9395 34.1606H4.93945C3.00646 34.1606 1.43945 32.5936 1.43945 30.6606V4.66064C1.43945 2.72765 3.00646 1.16064 4.93945 1.16064Z" fill="#323232" stroke="#3C3C3C"/>
<g id="&#229;&#155;&#190;&#229;&#177;&#130;icon" clip-path="url(#clip0_136_35580)">
<g id="Group 14">
<path id="Rectangle 36 (Stroke)" fill-rule="evenodd" clip-rule="evenodd" d="M8.56145 13.8769C8.56968 13.6505 8.70466 13.4481 8.91044 13.3535L17.6848 9.31999C17.8441 9.24675 18.0274 9.24687 18.1867 9.3203L26.9686 13.3704C27.1743 13.4653 27.309 13.6678 27.317 13.8942C27.325 14.1205 27.2048 14.332 27.0064 14.4411L18.2328 19.264C18.0526 19.3631 17.8343 19.3629 17.6542 19.2637L8.87148 14.4242C8.67312 14.3149 8.55321 14.1032 8.56145 13.8769ZM10.4922 13.9471L17.9441 18.0533L25.3865 13.9622L17.935 10.5257L10.4922 13.9471Z" fill="white"/>
<path id="Rectangle 37 (Stroke)" fill-rule="evenodd" clip-rule="evenodd" d="M8.63575 17.3628C8.79567 17.0726 9.16059 16.9669 9.45081 17.1268L17.9443 21.807L26.4285 17.1432C26.7189 16.9835 27.0837 17.0895 27.2434 17.3799C27.403 17.6703 27.297 18.0351 27.0066 18.1948L18.233 23.0177C18.0528 23.1167 17.8345 23.1166 17.6544 23.0174L8.87168 18.1778C8.58146 18.0179 8.47582 17.653 8.63575 17.3628Z" fill="white"/>
<path id="Rectangle 38 (Stroke)" fill-rule="evenodd" clip-rule="evenodd" d="M8.63575 21.1163C8.79567 20.8261 9.16059 20.7205 9.45081 20.8804L17.9443 25.5606L26.4285 20.8967C26.7189 20.7371 27.0837 20.8431 27.2434 21.1335C27.403 21.4239 27.297 21.7887 27.0066 21.9483L18.233 26.7712C18.0528 26.8703 17.8345 26.8701 17.6544 26.7709L8.87168 21.9314C8.58146 21.7715 8.47582 21.4065 8.63575 21.1163Z" fill="white"/>
</g>
</g>
</g>
<defs>
<clipPath id="clip0_136_35580">
<rect width="24" height="24" fill="white" transform="translate(5.93945 5.66064)"/>
</clipPath>
</defs>
</svg>
