<svg width="24" height="24" viewBox="0 0 24 24" fill="none" xmlns="http://www.w3.org/2000/svg">
<g id="&#229;&#155;&#190;&#229;&#177;&#130;icon" clip-path="url(#clip0_191_1740)">
<g id="Group 14">
<path id="Rectangle 36 (Stroke)" fill-rule="evenodd" clip-rule="evenodd" d="M2.62224 8.21621C2.63047 7.98988 2.76545 7.78747 2.97123 7.69288L11.7456 3.65934C11.9049 3.58611 12.0882 3.58622 12.2474 3.65965L21.0294 7.7098C21.2351 7.80464 21.3698 8.00719 21.3778 8.23351C21.3858 8.45982 21.2656 8.67135 21.0672 8.78044L12.2936 13.6034C12.1134 13.7024 11.8951 13.7023 11.715 13.6031L2.93228 8.76353C2.73391 8.65423 2.614 8.44255 2.62224 8.21621ZM4.55298 8.28647L12.0049 12.3927L19.4472 8.30158L11.9958 4.86505L4.55298 8.28647Z" fill="white"/>
<path id="Rectangle 37 (Stroke)" fill-rule="evenodd" clip-rule="evenodd" d="M2.69635 11.7021C2.85628 11.4119 3.2212 11.3063 3.51142 11.4662L12.0049 16.1464L20.4891 11.4825C20.7795 11.3229 21.1443 11.4289 21.304 11.7193C21.4636 12.0097 21.3576 12.3745 21.0672 12.5341L12.2936 17.357C12.1134 17.4561 11.8951 17.456 11.715 17.3567L2.93229 12.5172C2.64206 12.3573 2.53643 11.9924 2.69635 11.7021Z" fill="white"/>
<path id="Rectangle 38 (Stroke)" fill-rule="evenodd" clip-rule="evenodd" d="M2.69635 15.4558C2.85628 15.1656 3.2212 15.0599 3.51142 15.2199L12.0049 19.9L20.4891 15.2362C20.7795 15.0766 21.1443 15.1826 21.304 15.4729C21.4636 15.7633 21.3576 16.1281 21.0672 16.2878L12.2936 21.1107C12.1134 21.2097 11.8951 21.2096 11.715 21.1104L2.93229 16.2709C2.64206 16.1109 2.53643 15.746 2.69635 15.4558Z" fill="white"/>
</g>
</g>
<defs>
<clipPath id="clip0_191_1740">
<rect width="24" height="24" fill="white"/>
</clipPath>
</defs>
</svg>
