<svg width="20" height="21" viewBox="0 0 20 21" fill="none" xmlns="http://www.w3.org/2000/svg">
<g id="Frame">
<path id="Vector" d="M15.8043 19.6606H4.19559C3.78047 19.6606 3.38235 19.4957 3.08881 19.2022C2.79528 18.9086 2.63037 18.5105 2.63037 18.0954V4.53018C2.63037 4.11506 2.79528 3.71694 3.08881 3.42341C3.38235 3.12987 3.78047 2.96497 4.19559 2.96497H5.89124C6.06421 2.96497 6.23009 3.03368 6.3524 3.15598C6.4747 3.27829 6.54341 3.44417 6.54341 3.61714C6.54341 3.79011 6.4747 3.95599 6.3524 4.0783C6.23009 4.2006 6.06421 4.26931 5.89124 4.26931H4.19559C4.1264 4.26931 4.06005 4.2968 4.01113 4.34572C3.9622 4.39464 3.93472 4.461 3.93472 4.53018V18.0954L4.19559 18.3563H15.8043L16.0652 18.0954V4.53018C16.0652 4.461 16.0377 4.39464 15.9887 4.34572C15.9398 4.2968 15.8735 4.26931 15.8043 4.26931H13.7173C13.5444 4.26931 13.3785 4.2006 13.2562 4.0783C13.1339 3.95599 13.0652 3.79011 13.0652 3.61714C13.0652 3.44417 13.1339 3.27829 13.2562 3.15598C13.3785 3.03368 13.5444 2.96497 13.7173 2.96497H15.8043C16.2194 2.96497 16.6175 3.12987 16.9111 3.42341C17.2046 3.71694 17.3695 4.11506 17.3695 4.53018V18.0954C17.3695 18.5105 17.2046 18.9086 16.9111 19.2022C16.6175 19.4957 16.2194 19.6606 15.8043 19.6606V19.6606Z" fill="white"/>
<path id="Vector_2" d="M13.7173 9.48673H6.28254C6.10958 9.48673 5.94369 9.41802 5.82139 9.29571C5.69908 9.17341 5.63037 9.00752 5.63037 8.83456C5.63037 8.66159 5.69908 8.49571 5.82139 8.3734C5.94369 8.25109 6.10958 8.18238 6.28254 8.18238H13.7173C13.8811 8.20802 14.0325 8.28498 14.1497 8.40219C14.2669 8.5194 14.3439 8.67079 14.3695 8.83456C14.3695 9.00752 14.3008 9.17341 14.1785 9.29571C14.0562 9.41802 13.8903 9.48673 13.7173 9.48673V9.48673ZM13.7173 12.6172H6.28254C6.10958 12.6172 5.94369 12.5485 5.82139 12.4261C5.69908 12.3038 5.63037 12.138 5.63037 11.965C5.63037 11.792 5.69908 11.6261 5.82139 11.5038C5.94369 11.3815 6.10958 11.3128 6.28254 11.3128H13.7173C13.8903 11.3128 14.0562 11.3815 14.1785 11.5038C14.3008 11.6261 14.3695 11.792 14.3695 11.965C14.3695 12.138 14.3008 12.3038 14.1785 12.4261C14.0562 12.5485 13.8903 12.6172 13.7173 12.6172V12.6172ZM9.80428 15.6172H6.28254C6.10958 15.6172 5.94369 15.5485 5.82139 15.4261C5.69908 15.3038 5.63037 15.138 5.63037 14.965C5.63037 14.792 5.69908 14.6261 5.82139 14.5038C5.94369 14.3815 6.10958 14.3128 6.28254 14.3128H9.80428C9.97725 14.3128 10.1431 14.3815 10.2654 14.5038C10.3877 14.6261 10.4565 14.792 10.4565 14.965C10.4565 15.138 10.3877 15.3038 10.2654 15.4261C10.1431 15.5485 9.97725 15.6172 9.80428 15.6172V15.6172ZM12.413 5.57369H7.58689C7.3528 5.57438 7.1211 5.5266 6.90639 5.43335C6.69167 5.34009 6.49859 5.20339 6.33931 5.03185C6.18002 4.86031 6.05797 4.65765 5.98086 4.43662C5.90375 4.2156 5.87323 3.981 5.89124 3.7476V3.3563C5.89124 2.90658 6.06989 2.47529 6.38789 2.15729C6.70588 1.83929 7.13718 1.66064 7.58689 1.66064L12.413 1.66064C12.8627 1.66064 13.294 1.83929 13.612 2.15729C13.93 2.47529 14.1086 2.90658 14.1086 3.3563V3.7476C14.1266 3.981 14.0961 4.2156 14.019 4.43662C13.9419 4.65765 13.8199 4.86031 13.6606 5.03185C13.5013 5.20339 13.3082 5.34009 13.0935 5.43335C12.8788 5.5266 12.6471 5.57438 12.413 5.57369V5.57369ZM7.58689 2.96499C7.48311 2.96499 7.38358 3.00622 7.3102 3.0796C7.23681 3.15299 7.19559 3.25252 7.19559 3.3563V3.7476C7.19559 4.00847 7.32602 4.26934 7.58689 4.26934H12.413C12.5278 4.23976 12.6291 4.17198 12.7002 4.07714C12.7713 3.98231 12.808 3.86608 12.8043 3.7476V3.3563C12.7717 3.26637 12.7198 3.18471 12.6522 3.11708C12.5846 3.04946 12.5029 2.99754 12.413 2.96499H7.58689Z" fill="white"/>
</g>
</svg>
