<svg width="20" height="20" viewBox="0 0 20 20" fill="none" xmlns="http://www.w3.org/2000/svg">
<g id="Frame">
<path id="Vector" d="M1.875 3.125H18.125C18.5 3.125 18.75 3.375 18.75 3.75C18.75 4.125 18.5 4.375 18.125 4.375H1.875C1.5 4.375 1.25 4.125 1.25 3.75C1.25 3.375 1.5 3.125 1.875 3.125ZM1.875 15.625H13.125C13.5 15.625 13.75 15.875 13.75 16.25C13.75 16.625 13.5 16.875 13.125 16.875H1.875C1.5 16.875 1.25 16.625 1.25 16.25C1.25 15.875 1.5 15.625 1.875 15.625ZM16.625 12.75L18.5 15.625C18.75 15.875 18.625 16.25 18.375 16.5C18.125 16.75 17.75 16.625 17.5 16.375L15.625 13.5C15 13.625 14.375 13.75 13.75 13.75C11.375 13.75 9.375 11.75 9.375 9.375C9.375 7 11.375 5 13.75 5C16.125 5 18.125 7 18.125 9.375C18.125 10.75 17.5 11.875 16.625 12.75ZM13.75 12.5C15.5 12.5 16.875 11.125 16.875 9.375C16.875 7.625 15.5 6.25 13.75 6.25C12 6.25 10.625 7.625 10.625 9.375C10.625 11.125 12 12.5 13.75 12.5ZM1.875 9.375H6.875C7.25 9.375 7.5 9.625 7.5 10C7.5 10.375 7.25 10.625 6.875 10.625H1.875C1.5 10.625 1.25 10.375 1.25 10C1.25 9.625 1.5 9.375 1.875 9.375Z" fill="white"/>
</g>
</svg>
