<svg width="15" height="16" viewBox="0 0 15 16" fill="none" xmlns="http://www.w3.org/2000/svg">
<g id="tips/info-circle">
<g id="Group 16">
<path id="Union" fill-rule="evenodd" clip-rule="evenodd" d="M7.5 3.26001C5.01472 3.26001 3 5.27473 3 7.76001C3 10.2453 5.01472 12.26 7.5 12.26C9.98528 12.26 12 10.2453 12 7.76001C12 5.27473 9.98528 3.26001 7.5 3.26001ZM2 7.76001C2 4.72244 4.46243 2.26001 7.5 2.26001C10.5376 2.26001 13 4.72244 13 7.76001C13 10.7976 10.5376 13.26 7.5 13.26C4.46243 13.26 2 10.7976 2 7.76001ZM8.09999 5.30801C8.09999 5.63938 7.83136 5.90801 7.49999 5.90801C7.16862 5.90801 6.89999 5.63938 6.89999 5.30801C6.89999 4.97664 7.16862 4.70801 7.49999 4.70801C7.83136 4.70801 8.09999 4.97664 8.09999 5.30801ZM7.4838 6.29529C7.20765 6.29529 6.9838 6.51915 6.9838 6.79529V10.3121C6.9838 10.5882 7.20765 10.8121 7.4838 10.8121C7.75994 10.8121 7.9838 10.5882 7.9838 10.3121V6.79529C7.9838 6.51915 7.75994 6.29529 7.4838 6.29529Z" fill="#16AD2F"/>
</g>
</g>
</svg>
