<svg width="20" height="20" viewBox="0 0 20 20" fill="none" xmlns="http://www.w3.org/2000/svg">
<g id="area icon">
<rect id="&#231;&#159;&#169;&#229;&#189;&#162;" opacity="0.01" width="20" height="20" fill="#D8D8D8"/>
<g id="&#229;&#189;&#162;&#231;&#138;&#182;">
<mask id="path-2-outside-1_276_51559" maskUnits="userSpaceOnUse" x="1" y="1" width="18" height="18" fill="black">
<rect fill="white" x="1" y="1" width="18" height="18"/>
<path fill-rule="evenodd" clip-rule="evenodd" d="M13.25 2.5C13.25 2.22386 13.4739 2 13.75 2H17.5C17.7761 2 18 2.22386 18 2.5V6.25C18 6.52614 17.7761 6.75 17.5 6.75C17.2239 6.75 17 6.52614 17 6.25V3H13.75C13.4739 3 13.25 2.77614 13.25 2.5ZM17.5 13.25C17.7761 13.25 18 13.4739 18 13.75V17.5C18 17.7761 17.7761 18 17.5 18H13.75C13.4739 18 13.25 17.7761 13.25 17.5C13.25 17.2239 13.4739 17 13.75 17H17V13.75C17 13.4739 17.2239 13.25 17.5 13.25ZM2.5 13.25C2.77614 13.25 3 13.4739 3 13.75V17H6.25C6.52614 17 6.75 17.2239 6.75 17.5C6.75 17.7761 6.52614 18 6.25 18H2.5C2.22386 18 2 17.7761 2 17.5V13.75C2 13.4739 2.22386 13.25 2.5 13.25ZM2 2.5C2 2.22386 2.22386 2 2.5 2H6.25C6.52614 2 6.75 2.22386 6.75 2.5C6.75 2.77614 6.52614 3 6.25 3H3V6.25C3 6.52614 2.77614 6.75 2.5 6.75C2.22386 6.75 2 6.52614 2 6.25V2.5Z"/>
</mask>
<path fill-rule="evenodd" clip-rule="evenodd" d="M13.25 2.5C13.25 2.22386 13.4739 2 13.75 2H17.5C17.7761 2 18 2.22386 18 2.5V6.25C18 6.52614 17.7761 6.75 17.5 6.75C17.2239 6.75 17 6.52614 17 6.25V3H13.75C13.4739 3 13.25 2.77614 13.25 2.5ZM17.5 13.25C17.7761 13.25 18 13.4739 18 13.75V17.5C18 17.7761 17.7761 18 17.5 18H13.75C13.4739 18 13.25 17.7761 13.25 17.5C13.25 17.2239 13.4739 17 13.75 17H17V13.75C17 13.4739 17.2239 13.25 17.5 13.25ZM2.5 13.25C2.77614 13.25 3 13.4739 3 13.75V17H6.25C6.52614 17 6.75 17.2239 6.75 17.5C6.75 17.7761 6.52614 18 6.25 18H2.5C2.22386 18 2 17.7761 2 17.5V13.75C2 13.4739 2.22386 13.25 2.5 13.25ZM2 2.5C2 2.22386 2.22386 2 2.5 2H6.25C6.52614 2 6.75 2.22386 6.75 2.5C6.75 2.77614 6.52614 3 6.25 3H3V6.25C3 6.52614 2.77614 6.75 2.5 6.75C2.22386 6.75 2 6.52614 2 6.25V2.5Z" fill="white"/>
<path d="M17 3H17.25V2.75H17V3ZM17 17V17.25H17.25V17H17ZM3 17H2.75V17.25H3V17ZM3 3V2.75H2.75V3H3ZM13.75 1.75C13.3358 1.75 13 2.08579 13 2.5H13.5C13.5 2.36193 13.6119 2.25 13.75 2.25V1.75ZM17.5 1.75H13.75V2.25H17.5V1.75ZM18.25 2.5C18.25 2.08579 17.9142 1.75 17.5 1.75V2.25C17.6381 2.25 17.75 2.36193 17.75 2.5H18.25ZM18.25 6.25V2.5H17.75V6.25H18.25ZM17.5 7C17.9142 7 18.25 6.66421 18.25 6.25H17.75C17.75 6.38807 17.6381 6.5 17.5 6.5V7ZM16.75 6.25C16.75 6.66421 17.0858 7 17.5 7V6.5C17.3619 6.5 17.25 6.38807 17.25 6.25H16.75ZM16.75 3V6.25H17.25V3H16.75ZM13.75 3.25H17V2.75H13.75V3.25ZM13 2.5C13 2.91421 13.3358 3.25 13.75 3.25V2.75C13.6119 2.75 13.5 2.63807 13.5 2.5H13ZM18.25 13.75C18.25 13.3358 17.9142 13 17.5 13V13.5C17.6381 13.5 17.75 13.6119 17.75 13.75H18.25ZM18.25 17.5V13.75H17.75V17.5H18.25ZM17.5 18.25C17.9142 18.25 18.25 17.9142 18.25 17.5H17.75C17.75 17.6381 17.6381 17.75 17.5 17.75V18.25ZM13.75 18.25H17.5V17.75H13.75V18.25ZM13 17.5C13 17.9142 13.3358 18.25 13.75 18.25V17.75C13.6119 17.75 13.5 17.6381 13.5 17.5H13ZM13.75 16.75C13.3358 16.75 13 17.0858 13 17.5H13.5C13.5 17.3619 13.6119 17.25 13.75 17.25V16.75ZM17 16.75H13.75V17.25H17V16.75ZM16.75 13.75V17H17.25V13.75H16.75ZM17.5 13C17.0858 13 16.75 13.3358 16.75 13.75H17.25C17.25 13.6119 17.3619 13.5 17.5 13.5V13ZM3.25 13.75C3.25 13.3358 2.91421 13 2.5 13V13.5C2.63807 13.5 2.75 13.6119 2.75 13.75H3.25ZM3.25 17V13.75H2.75V17H3.25ZM6.25 16.75H3V17.25H6.25V16.75ZM7 17.5C7 17.0858 6.66421 16.75 6.25 16.75V17.25C6.38807 17.25 6.5 17.3619 6.5 17.5H7ZM6.25 18.25C6.66421 18.25 7 17.9142 7 17.5H6.5C6.5 17.6381 6.38807 17.75 6.25 17.75V18.25ZM2.5 18.25H6.25V17.75H2.5V18.25ZM1.75 17.5C1.75 17.9142 2.08579 18.25 2.5 18.25V17.75C2.36193 17.75 2.25 17.6381 2.25 17.5H1.75ZM1.75 13.75V17.5H2.25V13.75H1.75ZM2.5 13C2.08579 13 1.75 13.3358 1.75 13.75H2.25C2.25 13.6119 2.36193 13.5 2.5 13.5V13ZM2.5 1.75C2.08579 1.75 1.75 2.08579 1.75 2.5H2.25C2.25 2.36193 2.36193 2.25 2.5 2.25V1.75ZM6.25 1.75H2.5V2.25H6.25V1.75ZM7 2.5C7 2.08579 6.66421 1.75 6.25 1.75V2.25C6.38807 2.25 6.5 2.36193 6.5 2.5H7ZM6.25 3.25C6.66421 3.25 7 2.91421 7 2.5H6.5C6.5 2.63807 6.38807 2.75 6.25 2.75V3.25ZM3 3.25H6.25V2.75H3V3.25ZM3.25 6.25V3H2.75V6.25H3.25ZM2.5 7C2.91421 7 3.25 6.66421 3.25 6.25H2.75C2.75 6.38807 2.63807 6.5 2.5 6.5V7ZM1.75 6.25C1.75 6.66421 2.08579 7 2.5 7V6.5C2.36193 6.5 2.25 6.38807 2.25 6.25H1.75ZM1.75 2.5V6.25H2.25V2.5H1.75Z" fill="white" mask="url(#path-2-outside-1_276_51559)"/>
</g>
<path id="&#229;&#189;&#162;&#231;&#138;&#182;_2" fill-rule="evenodd" clip-rule="evenodd" d="M11.1248 5.50013C11.125 4.8788 10.6213 4.375 10 4.375C9.37878 4.375 8.87519 4.87864 8.87526 5.49987L8.87527 5.6417L8.65955 5.70302C7.18115 6.16372 6.02996 7.36638 5.6417 8.87527L5.5005 8.87524C4.87894 8.87511 4.375 9.37894 4.375 10.0005C4.375 10.6217 4.87833 11.1253 5.4995 11.1258L5.64199 11.1259L5.69053 11.2997C6.14167 12.7977 7.35253 13.9665 8.87527 14.3583L8.87526 14.5001C8.87519 15.1214 9.37878 15.625 10 15.625C10.6213 15.625 11.125 15.1212 11.1248 14.4999L11.1247 14.3583L11.3426 14.2963C12.7624 13.8531 13.8801 12.7255 14.3095 11.2997L14.358 11.1259L14.5005 11.1258C15.1217 11.1253 15.625 10.6217 15.625 10.0005C15.625 9.37894 15.1211 8.87511 14.4995 8.87524L14.3583 8.87527L14.297 8.65955C13.8363 7.18115 12.6336 6.02996 11.1247 5.6417L11.1248 5.50013ZM6.875 10C6.875 8.27411 8.27411 6.875 10 6.875C11.7259 6.875 13.125 8.27411 13.125 10C13.125 11.7259 11.7259 13.125 10 13.125C8.27411 13.125 6.875 11.7259 6.875 10Z" fill="white"/>
<circle id="&#230;&#164;&#173;&#229;&#156;&#134;&#229;&#189;&#162;" cx="10" cy="10" r="1.25" fill="white"/>
</g>
</svg>
