<svg width="18" height="18" viewBox="0 0 18 18" fill="none" xmlns="http://www.w3.org/2000/svg">
<g id="help" clip-path="url(#clip0_328_46305)">
<path id="Vector" d="M8.9999 0.899994C13.4734 0.899994 17.0999 4.52647 17.0999 8.99999C17.0999 13.4735 13.4734 17.1 8.9999 17.1C4.52638 17.1 0.899902 13.4735 0.899902 8.99999C0.899902 4.52647 4.52638 0.899994 8.9999 0.899994ZM8.9999 1.91999C5.18915 1.91999 1.9199 5.18924 1.9199 8.99999C1.9199 12.8107 5.18915 16.08 8.9999 16.08C12.8107 16.08 16.0799 12.8107 16.0799 8.99999C16.0799 5.18924 12.8107 1.91999 8.9999 1.91999Z" fill="white"/>
<path id="Vector (Stroke)" fill-rule="evenodd" clip-rule="evenodd" d="M10.2022 9.2799C10.2054 9.27651 10.2087 9.27327 10.2122 9.27022C10.809 8.74959 11.1526 8.42949 11.2586 8.30042C11.5527 7.92341 11.71 7.43571 11.71 6.8407C11.71 6.11427 11.4695 5.5461 10.9967 5.13246L10.9953 5.13121C10.5195 4.70299 9.89639 4.49508 9.11125 4.49508C8.20127 4.49508 7.5057 4.75244 7.00564 5.26441L7.00453 5.26554C6.62932 5.64075 6.39218 6.11728 6.29587 6.7069C6.25269 6.97126 6.47579 7.21195 6.77617 7.21195C7.0616 7.21195 7.30375 6.97389 7.37467 6.65755C7.43389 6.39341 7.53218 6.1653 7.67274 5.97716C7.95904 5.56376 8.42569 5.3768 9.02266 5.3768C9.50261 5.3768 9.90836 5.51048 10.1939 5.79602L10.1963 5.79847C10.4653 6.08155 10.6005 6.45907 10.6005 6.9293C10.6005 7.29592 10.4587 7.62813 10.2174 7.9364L10.2119 7.94341L9.99655 8.18369C9.99309 8.18755 9.98941 8.19122 9.98553 8.19466C9.59498 8.54111 9.28239 8.84141 9.04789 9.09764C8.81364 9.35362 8.66406 9.55847 8.59001 9.71609C8.55738 9.79991 8.52683 9.86291 8.4991 9.92008C8.43391 10.0545 8.38435 10.1567 8.3602 10.4215L8.35951 10.4578C8.35442 10.7257 8.57016 10.9455 8.83806 10.9455H8.89693C9.0256 10.9455 9.13567 10.887 9.22651 10.7853C9.31891 10.6818 9.38714 10.5373 9.4227 10.3837C9.50571 10.0251 9.68682 9.82838 9.8927 9.60473C9.90276 9.59381 9.91287 9.58282 9.92303 9.57175C9.96086 9.53054 9.99112 9.49967 10.026 9.4641C10.0297 9.4603 10.0335 9.45645 10.0373 9.45252C10.0771 9.41193 10.1258 9.36184 10.2022 9.2799ZM9.45876 12.1126C9.31234 11.9661 9.12194 11.899 8.88344 11.899C8.65858 11.899 8.46777 11.9656 8.32077 12.1126L8.31724 12.1161C8.17045 12.2524 8.09453 12.4302 8.09453 12.6626C8.09453 12.8803 8.16919 13.061 8.32077 13.2126C8.47099 13.3628 8.66371 13.4388 8.88344 13.4388C9.10279 13.4388 9.29678 13.3629 9.44788 13.2235C9.60108 13.0695 9.685 12.8884 9.685 12.6626C9.685 12.4302 9.60915 12.2523 9.46236 12.116L9.45876 12.1126Z" fill="white"/>
</g>
<defs>
<clipPath id="clip0_328_46305">
<rect width="18" height="18" fill="white"/>
</clipPath>
</defs>
</svg>
